<svg width="41" height="41" viewBox="0 0 41 41" fill="none" xmlns="http://www.w3.org/2000/svg">
<path d="M20.5 34.5938C20.5 34.5938 4.48438 25.625 4.48438 14.7344C4.48438 12.8091 5.15142 10.9433 6.37201 9.45445C7.5926 7.96556 9.29135 6.94556 11.1792 6.56799C13.0671 6.19041 15.0275 6.47859 16.7268 7.38349C18.4262 8.28838 19.7595 9.7541 20.5 11.5313C21.2405 9.7541 22.5738 8.28838 24.2732 7.38349C25.9725 6.47859 27.9329 6.19041 29.8208 6.56799C31.7087 6.94556 33.4074 7.96556 34.628 9.45445C35.8486 10.9433 36.5156 12.8091 36.5156 14.7344C36.5156 25.625 20.5 34.5938 20.5 34.5938Z" stroke="#191C1F" stroke-width="1.5" stroke-linecap="round" stroke-linejoin="round"/>
</svg>
